<?xml version="1.0" standalone="no"?>
<!DOCTYPE svg PUBLIC "-//W3C//DTD SVG 20010904//EN"
 "http://www.w3.org/TR/2001/REC-SVG-20010904/DTD/svg10.dtd">
<svg version="1.0" xmlns="http://www.w3.org/2000/svg"
 width="1739.000000pt" height="1739.000000pt" viewBox="0 0 1739.000000 1739.000000"
 preserveAspectRatio="xMidYMid meet">
<metadata>
Created by potrace 1.14, written by Peter Selinger 2001-2017
</metadata>
<g transform="translate(0.000000,1739.000000) scale(0.100000,-0.100000)"
fill="#000000" stroke="none">
<path d="M3928 17245 c-1 -1 -23 -5 -48 -8 -49 -6 -110 -25 -124 -38 -6 -5
-16 -9 -23 -9 -7 0 -46 -23 -88 -51 -230 -156 -417 -460 -570 -926 -37 -112
-122 -428 -140 -525 -11 -53 -55 -306 -60 -338 -30 -213 -42 -314 -50 -430 -4
-47 -8 -96 -11 -110 -25 -163 -25 -960 1 -1225 2 -22 7 -71 10 -110 9 -107 21
-210 41 -360 8 -61 54 -328 59 -345 2 -8 7 -31 10 -50 14 -91 120 -518 130
-529 2 -2 -5 -26 -15 -55 -62 -171 -179 -595 -205 -745 -3 -19 -8 -38 -10 -41
-3 -4 -7 -25 -10 -46 -3 -22 -10 -62 -16 -90 -5 -28 -12 -64 -14 -80 -3 -16
-8 -45 -11 -64 -3 -19 -8 -44 -9 -55 -2 -11 -11 -78 -20 -150 -8 -71 -17 -146
-20 -166 -27 -221 -27 -804 0 -1014 21 -163 27 -210 40 -285 14 -79 21 -111
46 -215 5 -22 12 -49 14 -60 38 -189 168 -534 288 -765 75 -144 244 -419 277
-450 3 -3 25 -32 50 -65 25 -33 55 -71 66 -85 371 -441 789 -772 1344 -1062
l45 -23 2 -185 3 -185 -48 -50 c-226 -239 -416 -647 -467 -1005 -3 -25 -9 -61
-12 -80 -3 -19 -7 -46 -9 -60 -5 -35 -17 -216 -18 -267 l-1 -42 -75 41 c-41
23 -84 46 -95 52 -57 31 -202 132 -295 206 -479 382 -803 929 -915 1545 -2 11
-9 53 -15 93 -6 41 -17 86 -24 100 -54 103 -192 135 -282 67 -83 -64 -296
-434 -391 -680 -50 -130 -106 -305 -117 -365 -2 -14 -11 -54 -19 -90 -8 -36
-18 -83 -21 -104 -4 -21 -8 -48 -11 -60 -19 -88 -29 -248 -30 -451 0 -259 9
-359 60 -620 17 -88 73 -276 117 -395 147 -396 375 -754 671 -1053 177 -178
325 -296 550 -437 l120 -75 3 -85 c2 -47 6 -98 8 -115 3 -16 10 -64 16 -105 6
-41 18 -102 27 -135 8 -33 16 -67 18 -75 2 -8 8 -35 15 -60 7 -25 14 -52 16
-60 2 -8 11 -42 20 -75 9 -33 17 -67 19 -75 8 -37 90 -282 117 -350 212 -536
565 -840 1068 -921 173 -28 158 -27 730 -28 l495 -1 98 -73 c122 -92 242 -156
377 -200 106 -35 146 -45 210 -53 19 -2 64 -8 100 -13 69 -10 551 -8 610 3
136 25 195 39 223 50 18 8 52 22 77 32 94 39 199 123 273 217 l29 36 882 1
883 0 49 -57 c60 -72 85 -95 150 -138 96 -65 230 -113 389 -140 65 -11 554
-14 625 -4 36 5 81 11 100 13 118 16 285 71 400 132 79 42 214 133 258 175 19
17 48 18 509 19 464 0 549 2 653 15 119 15 175 27 325 72 89 27 268 121 356
187 77 59 219 201 243 244 5 10 12 19 16 22 3 3 29 42 58 87 129 203 220 449
347 938 5 17 9 35 11 41 1 7 9 43 17 80 9 38 19 96 23 129 3 33 9 69 11 80 10
38 11 390 2 460 -63 506 -241 879 -546 1146 -46 41 -174 124 -221 145 l-44 19
6 60 c4 33 9 74 11 90 26 162 36 475 22 685 -34 494 -209 945 -487 1252 l-61
68 -2 180 -2 180 80 41 c44 23 94 50 112 61 18 10 48 26 66 37 438 248 819
566 1145 955 200 239 402 585 532 910 115 291 214 682 236 935 3 36 7 72 10
80 11 34 19 257 18 506 0 302 -8 430 -40 685 -3 19 -7 53 -10 75 -7 55 -43
271 -54 320 -5 22 -12 56 -15 75 -3 19 -11 55 -16 80 -6 25 -12 52 -14 60 -40
175 -91 358 -151 545 -51 155 -50 140 -4 315 63 238 141 637 164 835 3 28 10
85 16 129 5 43 12 115 16 160 3 44 7 91 9 103 25 158 26 1037 0 1258 -2 17 -6
64 -10 105 -3 41 -8 89 -10 105 -2 17 -7 53 -10 80 -9 76 -35 271 -41 297 -5
26 -11 62 -19 111 -53 308 -166 709 -272 956 -187 438 -416 687 -684 746 -101
22 -338 13 -469 -19 -131 -31 -246 -66 -329 -100 -36 -14 -70 -26 -78 -26 -7
0 -13 -4 -13 -9 0 -5 -12 -12 -27 -16 -46 -11 -308 -146 -455 -234 -241 -143
-596 -393 -783 -550 -17 -15 -48 -39 -69 -56 -21 -16 -44 -35 -50 -40 -6 -6
-56 -48 -111 -95 -55 -47 -107 -93 -117 -103 -16 -15 -22 -16 -51 -3 -343 149
-424 181 -617 246 -132 44 -371 115 -420 125 -8 2 -51 12 -95 23 -183 47 -483
102 -694 127 -30 4 -62 8 -72 10 -10 2 -58 7 -106 10 -48 4 -99 8 -112 10 -48
8 -368 19 -531 18 -143 -1 -321 -8 -440 -18 -139 -12 -188 -16 -210 -20 -14
-2 -54 -7 -90 -11 -36 -3 -72 -7 -80 -9 -15 -3 -79 -13 -135 -21 -27 -4 -115
-19 -175 -31 -13 -2 -56 -11 -95 -19 -38 -9 -79 -17 -90 -20 -11 -2 -31 -6
-45 -9 -14 -4 -36 -8 -49 -11 -14 -3 -28 -7 -31 -9 -4 -2 -20 -6 -36 -9 -152
-27 -710 -215 -909 -306 -209 -96 -195 -91 -219 -72 -11 9 -32 27 -46 39 -131
113 -323 272 -411 338 -527 400 -839 586 -1284 766 -98 39 -270 85 -390 103
-79 12 -297 20 -307 11z"/>
</g>
</svg>
